<svg xmlns="http://www.w3.org/2000/svg" xmlns:xlink="http://www.w3.org/1999/xlink" width="22" height="19" viewBox="0 0 22 19"><defs><path id="wpaea" d="M1647 605.333v2.461c-.002.663-.884 1.182-2.2 1.571v2.3a.748.748 0 0 1-.072.315c.757.302 1.14.662 1.166 1.094h.006v2.461c-.003 1.17-2.749 1.897-5.8 2.237-.022.004-.043.014-.067.014-.007 0-.013-.004-.02-.004-.588.063-1.185.113-1.777.148-.012 0-.023.007-.036.007-.006 0-.013-.003-.019-.004-.75.045-1.49.067-2.18.067-.692 0-1.431-.022-2.182-.066-.007 0-.012.003-.02.003-.012 0-.023-.006-.035-.007a38.67 38.67 0 0 1-1.777-.148c-.008 0-.013.004-.02.004-.024 0-.045-.01-.067-.013-3.051-.34-5.797-1.067-5.8-2.236v-2.463h.005a.753.753 0 0 1 .05-.219c-.716-.33-1.154-.723-1.155-1.189v-2.463h.004c.035-.593.755-1.056 2.196-1.412v-2.458h.005a.755.755 0 0 1 .033-.179c-1.337-.39-2.236-.912-2.238-1.58v-2.464h.006c.132-2.05 8.888-2.111 9.894-2.111 1.006 0 9.762.062 9.894 2.111h.006v2.462a.772.772 0 0 1-.079.33c1.492.358 2.239.829 2.275 1.43zm-2.933 6.332v-1.457a5.5 5.5 0 0 1-1.1.484v1.678c.422-.159.742-.323.935-.485l.125-.107a.213.213 0 0 0 .04-.113zm-7.57 1.728c.08-.004.158-.008.237-.01v-1.757c-.368.014-.737.027-1.106.032l-.059.002-.302.005v1.756a24.446 24.446 0 0 0 .56-.007c.226-.005.45-.012.67-.021zm-2.177.028l.213.002v-1.758l-.302-.005-.058-.001c-.37-.005-.739-.018-1.106-.033v1.756a52.493 52.493 0 0 0 .657.025c.166.006.333.01.501.011.032.001.063.003.095.003zm-6.583-.768c.282.073.593.146.93.215v-1.717c-.39-.073-.758-.155-1.1-.244v1.7l.035.01.135.036zm7.536 2.876c-.37-.005-.739-.017-1.106-.032v1.756c.47.022.96.036 1.466.041v-1.76c-.1 0-.201-.001-.302-.005h-.058zm1.396 0l-.302.006v1.758c.506-.005.996-.019 1.466-.04v-1.756c-.367.015-.736.026-1.106.032h-.058zm1.898-.074v1.755a33.94 33.94 0 0 0 1.1-.092v-1.748c-.361.034-.728.062-1.1.085zm1.833 1.58c.388-.05.755-.103 1.1-.162v-1.728c-.355.056-.722.105-1.1.15zm1.833-.297c.406-.083.774-.17 1.1-.26v-1.7c-.342.088-.71.17-1.1.242zm-13.566-1.96v1.7c.326.09.694.177 1.1.26v-1.718c-.39-.073-.758-.154-1.1-.243zm1.833 2.095c.345.06.712.113 1.1.162v-1.74a28.916 28.916 0 0 1-1.1-.15zm1.833.245c.353.036.72.067 1.1.093v-1.755a37.1 37.1 0 0 1-1.1-.086zm0-3.779v-1.753c-.371-.024-.739-.052-1.1-.086v1.748c.027.001.053.005.08.008l.11.01c.298.028.602.052.91.073zm-2.933-2.064v1.728c.345.059.712.112 1.1.161v-1.74a28.875 28.875 0 0 1-1.1-.15zm8.47 2.036c.238-.019.47-.04.697-.063V611.5c-.361.034-.729.062-1.1.085v1.754c.082-.005.163-.01.244-.017l.16-.011zm2.53-.308v-1.728c-.355.055-.722.105-1.1.15v1.74c.388-.049.754-.103 1.1-.162zm.733-.136c.406-.082.774-.17 1.1-.26v-1.7c-.342.09-.71.17-1.1.244zm-4.933-3.323c.174.005.354.005.533.006v-1.756l-.303-.004-.057-.002c-.37-.005-.739-.017-1.106-.033v1.757l.042.002c.265.011.534.021.81.028l.081.002zm-8.236-4.925c.182.045.372.088.567.129l.136.027v-1.718c-.39-.073-.758-.154-1.1-.242v1.699c.126.035.258.07.397.105zm6.209-1.053c-.37-.005-.739-.017-1.106-.033v1.755c.482.024.973.036 1.466.04v-1.756l-.302-.005h-.058zm1.396.001l-.302.005v1.757l.396-.004.119-.002c.254-.006.505-.013.75-.024h.016c.063-.003.123-.008.185-.01v-1.756c-.367.015-.736.026-1.106.033l-.058.001zm8.498.004v-1.456a5.59 5.59 0 0 1-1.1.484v1.674c.381-.141.678-.287.872-.432l.133-.1.01.001c.055-.06.085-.117.085-.171zm-3.667 1.337v-1.726c-.355.055-.722.105-1.1.15v1.737c.386-.047.752-.102 1.1-.16zm1.833-.398v-1.695c-.342.088-.71.17-1.1.242v1.715c.402-.082.772-.17 1.1-.262zm-4.766-1.017v1.753a31.85 31.85 0 0 0 1.1-.094v-1.745c-.361.034-.729.062-1.1.086zm-5.134 1.751v-1.75c-.371-.025-.739-.053-1.1-.087v1.746c.359.037.727.067 1.1.091zm-2.933-2.06v1.727l.12.02c.203.033.41.065.622.094l.138.019.22.026v-1.738a30.041 30.041 0 0 1-1.1-.149zm5.133 6.285v-1.754a35.385 35.385 0 0 1-1.1-.086v1.748l.03.002.143.015c.224.022.453.04.688.059l.148.01.091.006zm-2.488-.264c.21.03.43.06.655.09v-1.741a27.886 27.886 0 0 1-1.1-.15v1.727a27.756 27.756 0 0 0 .445.074zm-2.278-2.168v1.692c.327.093.695.182 1.1.265v-1.715c-.39-.072-.758-.153-1.1-.242zm-1.834-.7v1.457c0 .011.004.023.007.034l.024.039c.121.194.493.413 1.07.626v-1.672a5.526 5.526 0 0 1-1.1-.484zm9.836 1.453l-.302.004v1.756c.495-.005.984-.017 1.466-.04v-1.755c-.367.016-.736.028-1.105.033-.02 0-.04 0-.059.002zm4.831 1.342v-1.727c-.355.055-.722.105-1.1.149v1.738c.095-.012.191-.022.284-.035.098-.013.196-.026.292-.042.167-.023.329-.05.49-.076l.034-.007zm-2.478.303c.219-.017.432-.038.645-.06v-1.746c-.361.034-.729.063-1.1.086v1.753c.138-.01.28-.018.416-.029.013 0 .026-.003.04-.004zm4.312-.698v-1.7c-.343.089-.711.17-1.1.243v1.717l.087-.018.28-.06c.197-.046.39-.09.572-.14l.16-.042zm-.287-4.243c-.023.014-.05.027-.073.042-.04.025-.085.049-.129.074-.038.021-.074.043-.115.063a4.308 4.308 0 0 1-.373.17c-.095.04-.195.08-.299.116l-.063.025a11.69 11.69 0 0 1-.522.167c-.076.021-.153.044-.233.065-1.718.472-4.187.776-6.851.815a31.477 31.477 0 0 1-1.417-.005c-.46-.01-.916-.029-1.365-.054l-.007.002c-.005 0-.009-.003-.014-.003a34.248 34.248 0 0 1-1.818-.15H1630.86a25.786 25.786 0 0 1-2.836-.464l-.078-.017c-.005.01-.005.014-.006.021.041.238.604.553 1.604.85 1.296.384 3.327.736 5.9.845.13.006.262.012.396.015l.332.01a43.992 43.992 0 0 0 1.858.001l.332-.01c.134-.004.265-.01.397-.015 2.572-.11 4.602-.462 5.9-.846 1.007-.299 1.571-.616 1.605-.856-.042-.144-.475-.518-2.116-.86zm-18.408-3.353c.044.238.607.551 1.604.847 1.297.385 3.327.737 5.9.846.13.006.262.01.397.015l.331.01c.303.005.611.01.929.01.318 0 .626-.005.929-.01l.332-.01.397-.015c2.572-.109 4.602-.461 5.9-.846.996-.296 1.559-.61 1.603-.847-.057-.524-3.115-1.437-9.161-1.437-6.046 0-9.104.913-9.161 1.437zm1.094 3.143v-1.685a5.588 5.588 0 0 1-1.1-.484v1.457c.001.198.387.455 1.1.712zm-1.096 4.94c.033.24.597.558 1.606.857 1.297.384 3.327.736 5.9.846l.397.015.33.009a37.66 37.66 0 0 0 1.631.005l.273-.005.247-.008c2.78-.086 4.967-.456 6.336-.861a6.911 6.911 0 0 0 1.085-.407c-1.23.254-2.683.432-4.233.52l-.009.001h-.005a38.221 38.221 0 0 1-2.871.056 38.691 38.691 0 0 1-1.523-.057l-.001.001h-.003c-1.545-.087-2.964-.263-4.153-.505l-.288-.06-.092-.02c-1.294-.285-2.333-.667-2.835-1.153-.006-.006-.014-.01-.02-.017-1.36.32-1.731.652-1.772.783zm.883 3.071l.004-.003.21.078v-1.678a5.588 5.588 0 0 1-1.1-.485v1.458c0 .177.31.402.886.63zm1.313 3.952v-1.684a5.556 5.556 0 0 1-1.1-.485v1.457c.001.198.387.456 1.1.712zm17.234-.712v-1.457a5.56 5.56 0 0 1-1.1.485v1.684c.713-.257 1.1-.515 1.1-.712zm-.952-2.993c-.033.022-.073.044-.108.066l-.118.071-.101.056c-.643.343-1.58.618-2.663.832l-.077.015a27.82 27.82 0 0 1-2.192.328c-.008 0-.014.005-.022.005l-.007-.002a35.02 35.02 0 0 1-1.822.152l-.005.001h-.003c-.516.03-1.044.049-1.579.058-.21.002-.416.004-.618.004-.152 0-.307 0-.464-.003a36.852 36.852 0 0 1-1.735-.06h-.001-.002c-1.84-.104-3.545-.337-4.88-.664-.06-.016-.12-.03-.18-.044l-.118-.032a11.815 11.815 0 0 1-.678-.202c.07.236.63.54 1.6.828 1.298.384 3.328.736 5.9.846a45.623 45.623 0 0 0 1.658.036c.317 0 .626-.004.929-.011l.332-.01c.134-.004.265-.009.397-.015 2.572-.11 4.602-.46 5.9-.845 1-.298 1.564-.613 1.604-.851-.024-.088-.223-.31-.947-.559zm2.052-4.748v-1.457a5.589 5.589 0 0 1-1.1.485v1.684c.713-.256 1.1-.513 1.1-.712z"/></defs><g><g transform="translate(-1625 -599)"><use fill="#f5a918" xlink:href="#wpaea"/></g></g></svg>