<svg xmlns="http://www.w3.org/2000/svg" xmlns:xlink="http://www.w3.org/1999/xlink" width="21" height="34" viewBox="0 0 21 34"><defs><path id="uex8a" d="M1455.627 43.476a11.289 11.289 0 0 1-3.207 4.282 11.204 11.204 0 0 1-4.46 2.261c-2.443.593-4.986.301-7.031-.993-.968 1.253-4.004 5.482-3.386 8.659a.503.503 0 0 1-.4.583.494.494 0 0 1-.592-.377c-.703-3.557 2.523-8.094 3.567-9.442a7.922 7.922 0 0 1-2.199-2.886 8.018 8.018 0 0 1-.517-4.883 8.185 8.185 0 0 1 2.732-4.551 10.333 10.333 0 0 1 2.612-1.63c7.268-3.175 8.269-8.537 8.265-8.55v-.001a.517.517 0 0 1 .593-.401c.138.022.26.1.335.215 5.082 7.39 5.496 13.455 3.688 17.713zm-7.077-5.075l-1.537-3.554-.015-.036a.496.496 0 0 1 .3-.636.5.5 0 0 1 .649.278l1.196 2.764a20.57 20.57 0 0 0 2.07-8.982c-1.019 2.022-3.265 5.078-8.066 7.161a9.26 9.26 0 0 0-2.355 1.457 7.192 7.192 0 0 0-2.41 4.002 7.066 7.066 0 0 0 1.676 6.14c.235.26.49.502.763.724 3.752-3.213 6.177-6.41 7.729-9.318zm3.665-10.341c.053 2.253-.323 6.056-2.624 10.51a29.406 29.406 0 0 1-3.158 4.803l3.45-.434a.492.492 0 0 1 .547.408c.039.27-.154.521-.43.565l-4.49.568a38.772 38.772 0 0 1-3.864 3.82c1.822 1.034 4.009 1.31 6.074.767a10.116 10.116 0 0 0 4.057-2.04 10.286 10.286 0 0 0 2.914-3.91v-.004c1.552-3.65 1.322-8.777-2.476-15.053z"/></defs><g><g transform="translate(-1436 -25)"><use fill="#fc8a1d" xlink:href="#uex8a"/></g></g></svg>