<svg width="316" height="587" viewBox="0 0 316 587" fill="none" xmlns="http://www.w3.org/2000/svg">
<g filter="url(#filter0_d)">
<path fill-rule="evenodd" clip-rule="evenodd" d="M26 16H290C295.523 16 300 20.477 300 26C300 26 288 159.945 288 293.793C288 427.445 300 560.999 300 560.999C300 566.522 295.523 570.999 290 570.999H26C20.477 570.999 16 566.522 16 560.999C16 560.999 28 427.257 28 293.51C28 159.757 16 26 16 26C16 20.477 20.477 16 26 16Z" fill="white"/>
<path d="M301.992 26.1785L302 26.0894V26C302 19.3724 296.628 14 290 14H26C19.3724 14 14 19.3724 14 26V26.0895L14.008 26.1787L16 26C14.008 26.1787 14.008 26.1791 14.0081 26.1801L14.0085 26.1845L14.0101 26.2024L14.0166 26.2748L14.0422 26.5637C14.0648 26.8199 14.0984 27.2026 14.1423 27.7078C14.23 28.7182 14.3587 30.2183 14.5226 32.1755C14.8504 36.09 15.3188 41.8328 15.8809 49.1428C17.0052 63.7629 18.5043 84.6509 20.0036 109.717C23.0022 159.853 26 226.688 26 293.51C26 360.329 23.0022 427.159 20.0036 477.29C18.5043 502.354 17.0052 523.24 15.8809 537.859C15.3188 545.168 14.8504 550.91 14.5226 554.824C14.3587 556.781 14.23 558.281 14.1423 559.291C14.0984 559.797 14.0648 560.179 14.0422 560.435L14.0166 560.724L14.0101 560.797L14.0085 560.815L14.0081 560.819C14.008 560.82 14.008 560.82 16 560.999L14.008 560.82L14 560.909V560.999C14 567.627 19.3724 572.999 26 572.999H290C296.628 572.999 302 567.627 302 560.999V560.909L301.992 560.82L300 560.999C301.992 560.82 301.992 560.82 301.992 560.819L301.991 560.814L301.99 560.796L301.983 560.724L301.958 560.436C301.935 560.18 301.902 559.798 301.858 559.293C301.77 558.284 301.641 556.787 301.477 554.832C301.15 550.924 300.681 545.189 300.119 537.889C298.995 523.29 297.496 502.43 295.996 477.396C292.998 427.323 290 360.565 290 293.793C290 226.923 292.998 160.018 295.996 109.823C297.496 84.7271 298.995 63.8127 300.119 49.1734C300.681 41.8539 301.15 36.1033 301.477 32.1835C301.641 30.2236 301.77 28.7215 301.858 27.7097C301.902 27.2038 301.935 26.8206 301.958 26.564L301.983 26.2747L301.99 26.2022L301.992 26.1842L301.992 26.1798C301.992 26.1789 301.992 26.1785 300 26L301.992 26.1785Z" stroke="#85C336" stroke-width="4"/>
</g>
<mask id="mask0" mask-type="alpha" maskUnits="userSpaceOnUse" x="16" y="16" width="284" height="555">
<path fill-rule="evenodd" clip-rule="evenodd" d="M26 16H290C295.523 16 300 20.477 300 26C300 26 288 159.945 288 293.793C288 427.445 300 560.999 300 560.999C300 566.522 295.523 570.999 290 570.999H26C20.477 570.999 16 566.522 16 560.999C16 560.999 28 427.257 28 293.51C28 159.757 16 26 16 26C16 20.477 20.477 16 26 16Z" fill="white"/>
</mask>
<g mask="url(#mask0)">
<path d="M16 9H300V229.152L158 246L16 229.152V9Z" fill="#F0F3ED"/>
</g>
<defs>
<filter id="filter0_d" x="0.168" y="0.168" width="315.664" height="586.663" filterUnits="userSpaceOnUse" color-interpolation-filters="sRGB">
<feFlood flood-opacity="0" result="BackgroundImageFix"/>
<feColorMatrix in="SourceAlpha" type="matrix" values="0 0 0 0 0 0 0 0 0 0 0 0 0 0 0 0 0 0 127 0"/>
<feOffset/>
<feGaussianBlur stdDeviation="5.916"/>
<feColorMatrix type="matrix" values="0 0 0 0 0.52549 0 0 0 0 0.576471 0 0 0 0 0.635294 0 0 0 1 0"/>
<feBlend mode="normal" in2="BackgroundImageFix" result="effect1_dropShadow"/>
<feBlend mode="normal" in="SourceGraphic" in2="effect1_dropShadow" result="shape"/>
</filter>
</defs>
</svg>
