<svg xmlns="http://www.w3.org/2000/svg" xmlns:xlink="http://www.w3.org/1999/xlink" width="21" height="24" viewBox="0 0 21 24"><defs><path id="q9k7a" d="M1660.604 436.154c.427.56.612 1.184.539 1.804-.073.615-.394 1.178-.932 1.634-.234.198-.471.385-.702.562-.34.265-.663.514-.95.794-.006.011-.017.016-.022.024-.83.732-1.814 1.023-2.926.882-.096-.012-.202-.032-.302-.048-1.64-.318-3.042-1.15-4.085-1.833-2.727-1.821-5.021-4.2-6.821-7.076-1.482-2.386-2.408-4.548-2.93-6.828-.213-.93-.466-2.337-.178-3.778a3.683 3.683 0 0 1 1.32-2.184l1.84-1.503.011-.01c.539-.416 1.137-.599 1.725-.524.587.074 1.116.4 1.526.94.278.337.544.695.796 1.044.126.177.26.355.392.528l1.153 1.53c.887 1.17.726 2.526-.41 3.445-.15.122-.302.251-.454.373-.401.33-.813.672-1.252.994.214.71.54 1.428 1.048 2.288 1.055 1.739 2.206 3.126 3.52 4.24.13.113.283.217.446.33.113.077.23.16.347.246l1.708-1.375c.547-.447 1.146-.634 1.738-.562.598.076 1.13.419 1.537.98zm-1.036.825l-2.328-3.088c-.005-.002-.005-.002-.009-.006-.13-.19-.352-.416-.65-.457-.304-.033-.588.137-.772.285l-1.85 1.495c-.091.075-.372.306-.772.252a1.017 1.017 0 0 1-.462-.187c-.018-.009-.036-.028-.054-.04a5.722 5.722 0 0 0-.445-.323 7.037 7.037 0 0 1-.553-.41c-1.426-1.208-2.67-2.707-3.799-4.575l-.004-.006c-.618-1.053-1.004-1.92-1.244-2.822l-.01-.047c-.052-.294-.08-.724.385-1.103.006-.01.017-.012.028-.017.465-.336.897-.688 1.353-1.062.156-.122.308-.25.465-.38.573-.46.63-.95.183-1.544l-1.154-1.523c-.134-.186-.27-.366-.4-.545a21.984 21.984 0 0 0-.76-1c-.005-.01-.01-.012-.013-.02-.136-.179-.359-.4-.662-.44-.246-.028-.51.062-.774.264l-1.844 1.489a2.32 2.32 0 0 0-.84 1.398c-.181.903-.132 1.886.169 3.19.486 2.126 1.36 4.158 2.758 6.417 1.698 2.708 3.861 4.952 6.426 6.663.938.623 2.199 1.367 3.618 1.644.071.014.149.023.22.034.752.094 1.355-.084 1.906-.565.341-.325.698-.607 1.048-.876.232-.182.447-.35.66-.534-.006.004-.006 0 0 0 .553-.467.615-.989.18-1.561z"/></defs><g><g transform="translate(-1641 -418)"><use fill="#6ba423" xlink:href="#q9k7a"/></g></g></svg>