<svg xmlns="http://www.w3.org/2000/svg" xmlns:xlink="http://www.w3.org/1999/xlink" width="28" height="26" viewBox="0 0 28 26"><defs><path id="9tvna" d="M1318.134 59a.692.692 0 0 1-.458-.175L1311 54h-10c-2.683 0-5-1.676-5-4.468V38.067c0-2.794 2.183-5.067 4.865-5.067h19.27c2.682 0 3.865 2.204 3.865 5v12c0 2.792-1.317 4-4 4h-1l-.156 4.259c0 .288-.16.55-.41.671a.666.666 0 0 1-.3.07zM1301 34c-1.9 0-4 2.02-4 4v12c0 1.977 2.1 3 4 3h10l7 5v-5h2c1.9 0 3-1.023 3-3V38c0-1.98-1.1-4-3-4zm18 6h-18v-1h18zm0 4h-18v-1h18zm0 4h-18v-1h18z"/></defs><g><g transform="translate(-1296 -33)"><use fill="#6ba423" xlink:href="#9tvna"/></g></g></svg>