<svg xmlns="http://www.w3.org/2000/svg" xmlns:xlink="http://www.w3.org/1999/xlink" width="19" height="23" viewBox="0 0 19 23"><defs><path id="uxkja" d="M1647.903 352.937c-1.713-2.07-1.428-5.612-1.397-5.95.111-2.557 1.25-3.771 2.184-4.34.93-.566 1.9-.652 2.393-.652h.075c.899.023 1.704.248 2.393.675.925.567 2.046 1.779 2.157 4.317.031.338.316 3.88-1.396 5.95-.779.937-1.833 1.427-3.136 1.455h-.142c-1.303-.028-2.358-.518-3.131-1.455zm.894-.856c.556.676 1.307 1.016 2.286 1.023h.044c.983-.007 1.73-.347 2.29-1.023 1.415-1.702 1.104-4.943 1.1-4.974-.005-.01-.005-.026-.005-.04-.138-3.23-2.18-3.75-3.38-3.78h-.054c-.97 0-3.233.37-3.38 3.78 0 .01-.004.025-.004.04-.005.026-.307 3.28 1.103 4.974zm11.235 10.338a.623.623 0 0 1-.232.3c-.133.09-3.331 2.278-8.682 2.278-5.35 0-8.548-2.183-8.682-2.277a.597.597 0 0 1-.231-.301c-.236-.638-.231-1.91-.227-2.155v-.015c.005-.037.005-.075.005-.119.026-.94.084-3.144 2.015-3.856.013-.002.026-.009.044-.013 2.015-.55 3.674-1.785 3.692-1.8a.57.57 0 0 1 .836.16.665.665 0 0 1-.147.89c-.076.054-1.846 1.38-4.06 1.988-1.037.397-1.153 1.584-1.184 2.669 0 .044-.004.081-.004.118-.01.427.022 1.09.093 1.47.725.44 3.567 1.958 7.846 1.958 4.296 0 7.12-1.512 7.841-1.95.071-.38.098-1.045.094-1.471-.005-.04-.005-.08-.005-.119-.03-1.087-.146-2.273-1.183-2.671-2.215-.609-3.985-1.93-4.06-1.988a.667.667 0 0 1-.147-.892.575.575 0 0 1 .836-.157c.017.015 1.685 1.25 3.691 1.8.014.006.031.008.045.013 1.93.707 1.988 2.91 2.015 3.854 0 .043.004.08.004.12v.016c.005.246.01 1.518-.213 2.15z"/></defs><g><g transform="translate(-1642 -342)"><use fill="#6ba423" xlink:href="#uxkja"/></g></g></svg>